<?xml version="1.0" standalone="no"?><!DOCTYPE svg PUBLIC "-//W3C//DTD SVG 1.1//EN" "http://www.w3.org/Graphics/SVG/1.1/DTD/svg11.dtd"><svg t="1602252688544" class="icon" viewBox="0 0 1024 1024" version="1.1" xmlns="http://www.w3.org/2000/svg" p-id="2308" xmlns:xlink="http://www.w3.org/1999/xlink" width="200" height="200"><defs><style type="text/css"></style></defs><path d="M706.778 938.354c0 47.09-38.158 85.246-85.246 85.246H173.866c-47.088 0-85.278-38.156-85.278-85.246V85.678C88.588 38.588 126.778 0.4 173.866 0.4h447.666c47.088 0 85.246 38.188 85.246 85.278v852.676z" fill="#E6E9ED" p-id="2309"></path><path d="M88.588 853.078v85.276c0 47.09 38.19 85.246 85.278 85.246h447.666c47.088 0 85.246-38.156 85.246-85.246v-85.276H88.588z" fill="#656D78" p-id="2310"></path><path d="M429.666 938.354c0 23.544-19.08 42.624-42.624 42.624s-42.654-19.078-42.654-42.624c0-23.542 19.11-42.652 42.654-42.652s42.624 19.108 42.624 42.652z" fill="#CCD1D9" p-id="2311"></path><path d="M365.716 256.2c0 11.774-9.556 21.328-21.328 21.328H173.866c-11.772 0-21.328-9.554-21.328-21.328V85.678c0-11.774 9.556-21.328 21.328-21.328h170.524c11.772 0 21.328 9.554 21.328 21.328V256.2z" fill="#ED5564" p-id="2312"></path><path d="M621.532 256.2c0 11.774-9.554 21.328-21.358 21.328h-170.508c-11.772 0-21.328-9.554-21.328-21.328V85.678c0-11.774 9.554-21.328 21.328-21.328h170.508c11.802 0 21.358 9.554 21.358 21.328V256.2z" fill="#FFCE54" p-id="2313"></path><path d="M365.716 512c0 11.772-9.556 21.326-21.328 21.326H173.866c-11.772 0-21.328-9.554-21.328-21.326v-170.524c0-11.772 9.556-21.326 21.328-21.326h170.524c11.772 0 21.328 9.554 21.328 21.326V512z" fill="#A0D468" p-id="2314"></path><path d="M365.716 767.8c0 11.772-9.556 21.326-21.328 21.326H173.866c-11.772 0-21.328-9.554-21.328-21.326v-170.524c0-11.772 9.556-21.326 21.328-21.326h170.524c11.772 0 21.328 9.554 21.328 21.326V767.8z" fill="#FC6E51" p-id="2315"></path><path d="M621.532 767.8c0 11.772-9.554 21.326-21.358 21.326h-170.508c-11.772 0-21.328-9.554-21.328-21.326v-170.524c0-11.772 9.554-21.326 21.328-21.326h170.508c11.802 0 21.358 9.554 21.358 21.326V767.8z" fill="#5D9CEC" p-id="2316"></path><path d="M733.256 274.31c-10.868-24.262-36.908-36.19-61.264-25.262-24.42 10.898-43.466 42.998-32.6 67.228l-9.618-21.576c-10.868-24.2-44.464-32.788-68.82-21.858-24.404 10.896-40.39 41.624-29.556 65.854l-14.644-32.692c-10.71-23.952-43.934-32.446-68.134-22.14-1.092 0.406-2.186 0.812-3.278 1.312-24.386 10.896-40.156 41.53-29.32 65.762L341.58 184.474c-10.834-24.23-42.686-33.566-67.072-22.67-24.388 10.898-37.876 40.532-27.042 64.762l149.882 335.082-51.178-27.698c-27.01-14.644-60.952-4.622-75.784 22.358-14.864 26.978-4.964 60.734 22.076 75.378l239.594 129.742 21.28 23.608c7.372 9.68 20.734 13.394 32.352 8.182l238.562-106.7s0.062-0.032 0.062-0.094c0.188-0.062 0.376-0.124 0.624-0.188 11.118-4.996 17.236-16.612 15.676-28.072 0-0.188 0-0.374-0.062-0.53-52.462-287.898-107.294-383.324-107.294-383.324z" fill="#EAC6BB" p-id="2317"></path><path d="M865.78 621.258l-352.71 157.752 69.616 155.66 352.726-157.752z" fill="#434A54" p-id="2318"></path></svg>