<?xml version="1.0" standalone="no"?><!DOCTYPE svg PUBLIC "-//W3C//DTD SVG 1.1//EN" "http://www.w3.org/Graphics/SVG/1.1/DTD/svg11.dtd"><svg t="1602252748888" class="icon" viewBox="0 0 1024 1024" version="1.1" xmlns="http://www.w3.org/2000/svg" p-id="2558" xmlns:xlink="http://www.w3.org/1999/xlink" width="200" height="200"><defs><style type="text/css"></style></defs><path d="M918.8 437.6h-80.4v44h66.8L816 750c-2 6.4-8 10.8-15.2 10.8h-496c-9.2 0-16.4-7.6-16.4-16.4l-0.4-234.4v-28.4h439.2v-44H288v-168H128c3.2 6.4 4.8 14 4.8 21.6 0 9.6-2.8 18.4-7.6 26.4H244v188l0.4 255.2c0 12 4.8 23.2 12.4 31.2 7.6 8 18.8 12.8 30.8 12.8H806.8c18.8 0 35.6-12 41.6-30l112.4-337.2h-42z" fill="#E0E0E0" p-id="2559"></path><path d="M806 810.8H287.6c-13.2 0-25.6-5.2-35.2-14.8-9.2-9.6-14.4-22-14.4-35.2l-0.4-255.2V323.6H114.8l5.6-9.2c4.4-6.8 6.4-14.8 6.4-23.2 0-6.8-1.6-13.2-4.4-19.2l-4-8.8h175.6v168h439.2v56H294v22l0.4 234.4c0 6 4.8 10.8 10.8 10.8h496c4.4 0 8-2.8 9.2-6.8l86.8-260.8h-64.4v-56h136.8L854.8 776c-6.4 18.8-22.8 32-42.4 34v0.4l-6.4 0.4zM135.2 311.6h114.8v194l0.4 255.2c0 10 4 19.6 10.8 26.8 6.8 7.2 16.4 11.2 26.4 11.2H806.8c16.4 0 30.8-10.4 36-26l109.6-329.2H844v32h68.8l-92 276.4c-2.8 8.8-11.2 14.8-20.8 14.8H304c-12.4 0-22.4-10-22.4-22.4l-0.4-234.4v-1.2-33.2h439.2v-32H282v-168H136.8c1.6 5.2 2.4 10.4 2.4 15.6-0.4 7.2-1.6 14-4 20.4z" fill="#4A555F" p-id="2560"></path><path d="M386.4 481.6h12v279.2h-12zM508.156 481.464l11.988 0.56-13.108 279.296-11.984-0.56zM630.32 480.816l11.9 1.52-35.76 279.32-11.908-1.52zM755.744 525.124l11.664 2.82-56.68 234.448-11.664-2.82z" fill="#4A555F" p-id="2561"></path><path d="M386.8 849.2c-46.8 0-84.4 37.6-84.4 84.4s37.6 84.4 84.4 84.4c46.8 0 84.4-37.6 84.4-84.4s-37.6-84.4-84.4-84.4z m0 130.8c-25.6 0-46.4-20.8-46.4-46.4s20.8-46.4 46.4-46.4c25.6 0 46.4 20.8 46.4 46.4S412.4 980 386.8 980z" fill="#F68F6F" p-id="2562"></path><path d="M386.8 1024c-50 0-90.4-40.4-90.4-90.4 0-50 40.4-90.4 90.4-90.4s90.4 40.4 90.4 90.4c0 50-40.4 90.4-90.4 90.4z m0-168.8c-43.2 0-78.4 35.2-78.4 78.4S343.6 1012 386.8 1012s78.4-35.2 78.4-78.4-35.2-78.4-78.4-78.4z" fill="#4A555F" p-id="2563"></path><path d="M386.8 986c-28.8 0-52.4-23.6-52.4-52.4 0-28.8 23.6-52.4 52.4-52.4 28.8 0 52.4 23.6 52.4 52.4 0 28.8-23.6 52.4-52.4 52.4z m0-92.8c-22.4 0-40.4 18-40.4 40.4s18 40.4 40.4 40.4 40.4-18 40.4-40.4-18-40.4-40.4-40.4z" fill="#4A555F" p-id="2564"></path><path d="M673.6 849.2c-46.8 0-84.4 37.6-84.4 84.4s37.6 84.4 84.4 84.4 84.4-37.6 84.4-84.4-38-84.4-84.4-84.4z m0 130.8c-25.6 0-46.4-20.8-46.4-46.4s20.8-46.4 46.4-46.4S720 908 720 933.6s-20.8 46.4-46.4 46.4z" fill="#F68F6F" p-id="2565"></path><path d="M673.6 1024c-50 0-90.4-40.4-90.4-90.4 0-50 40.4-90.4 90.4-90.4 50 0 90.4 40.4 90.4 90.4 0 50-40.4 90.4-90.4 90.4z m0-168.8c-43.2 0-78.4 35.2-78.4 78.4s35.2 78.4 78.4 78.4 78.4-35.2 78.4-78.4-35.2-78.4-78.4-78.4z m0 130.8c-28.8 0-52.4-23.6-52.4-52.4 0-28.8 23.6-52.4 52.4-52.4 28.8 0 52.4 23.6 52.4 52.4 0 28.8-23.6 52.4-52.4 52.4z m0-92.8c-22.4 0-40.4 18-40.4 40.4s18 40.4 40.4 40.4 40.4-18 40.4-40.4-18-40.4-40.4-40.4z" fill="#4A555F" p-id="2566"></path><path d="M827.6 855.2H322.4c-46.4 0-84-37.6-84-84v-21.2h12v21.2c0 39.6 32.4 72 72 72h505.2v12zM288 615.2h570.8v12H288zM844.8 443.6h-123.6v-6c0-27.6-5.6-54-16.4-79.2l-37.6-86.8c-8-19.2-11.6-40.4-9.6-61.6 5.6-60.4 56-109.2 116.4-113.2 2.8-0.4 6-0.4 8.8-0.4 69.6 0 126 56.4 126 126 0 18-3.6 35.6-11.2 52l-36.4 84.4c-10.8 25.2-16.4 52-16.4 79.2v5.6z m-112-12h100c0.8-27.2 6.4-53.2 17.2-78l36.4-84.4c6.8-14.8 10-30.8 10-47.2 0-62.8-51.2-114-114-114-2.8 0-5.2 0-8 0.4-54.4 3.6-99.6 47.6-104.8 102.4-2 19.6 1.2 38 8.4 56l37.6 86.8c10.8 24.8 16.4 50.8 17.2 78z" fill="#4A555F" p-id="2567"></path><path d="M748.4 414.8c-2.4-23.6-8.4-46.4-17.6-68L693.2 260c-6.4-14.8-8.8-30.8-7.2-47.6 4.4-46.8 43.2-84.4 90-87.6 2.4 0 4.8-0.4 6.8-0.4 53.6 0 97.2 43.6 97.2 97.2 0 14-2.8 27.6-8.8 40l-36.8 84.8c-9.6 22-15.2 44.8-17.6 68h-68.4z" fill="#FFD552" p-id="2568"></path><path d="M844.8 507.6h-123.6v-76h123.6v76z m-112-12h100v-52h-99.6v52z" fill="#4A555F" p-id="2569"></path><path d="M750.8 479.2V460h70.4v19.2z" fill="#F68F6F" p-id="2570"></path><path d="M804.4 546h-42.8l-5.6-18.4h-8.4c-14.4 0-26-11.6-26-26v-6h123.6v6c0 14.4-11.6 26-26 26h-8.4l-6.4 18.4z m-34-12h25.2l5.6-18.4h17.2c5.6 0 10.8-3.2 12.8-8.4h-97.2c2.4 4.8 7.2 8.4 12.8 8.4h17.2l6.4 18.4zM821.6 437.6h-12V356.8c0-32.8 6.8-64.8 19.6-95.2l6.8-15.6c3.2-7.2 2.4-14.8-2-21.2s-11.2-10-18.8-10c-8.8 0-17.2 5.2-20.8 13.6l-4.8 11.2 6.8 15.6c2 4.4 1.6 10-1.2 14-2.8 4.4-7.2 6.8-12.4 6.8s-9.6-2.4-12.4-6.8c-2.8-4.4-3.2-9.6-1.2-14l6.8-15.6-4.8-11.2c-3.6-8-11.6-13.6-20.8-13.6-7.6 0-14.8 3.6-18.8 10s-4.8 14.4-2 21.2l6.8 15.6C749.6 292 756 324 756 356.8v80.4h-12V356.8c0-31.2-6.4-61.6-18.8-90.4l-6.8-15.6c-4.8-10.8-3.6-22.8 2.8-32.8 6.4-9.6 17.2-15.6 28.8-15.6 13.6 0 26 8 31.6 20.4l0.4 1.2 0.4-1.2c5.6-12.4 18-20.4 31.6-20.4 11.6 0 22.4 6 28.8 15.6 6.4 9.6 7.6 22 2.8 32.8l-6.8 15.6c-12.4 28.8-18.8 59.2-18.8 90.4v80.8z m-38.8-183.6l-2.4 6c-0.4 1.2 0 2 0.4 2.8 0.4 0.4 1.2 1.2 2.4 1.2s2-0.8 2.4-1.2c0.4-0.4 0.8-1.6 0.4-2.8l-3.2-6zM776.8 0h12v56.4h-12zM892.8 100.8l-10-6.4 6.4-10 10 6.4-6.4 10z m12.8-20.4l-10-6.4 6.4-10 10 6.4-6.4 10zM996.112 210.408l0.08 12-48.8 0.32-0.08-12z" fill="#4A555F" p-id="2571"></path><path d="M616.676 210.236l0.08 12-48.8 0.316-0.08-12z" fill="#4A555F" p-id="2572"></path><path d="M670 100.8l-6.4-10 10-6.4 6.4 10-10 6.4z m-12.8-20.4l-6.4-10 10-6.4 6.4 10-10 6.4z" fill="#4A555F" p-id="2573"></path><path d="M83.2 346.8c-30.8 0-55.6-24.8-55.6-55.6s24.8-55.6 55.6-55.6 55.6 24.8 55.6 55.6-24.8 55.6-55.6 55.6z m0-99.2c-24 0-43.6 19.6-43.6 43.6s19.6 43.6 43.6 43.6 43.6-19.6 43.6-43.6-19.6-43.6-43.6-43.6z" fill="#4A555F" p-id="2574"></path><path d="M83.2 319.2c-15.2 0-28-12.4-28-28 0-15.2 12.4-28 28-28s28 12.4 28 28-12.4 28-28 28z" fill="#FFD552" p-id="2575"></path></svg>