<?xml version="1.0" standalone="no"?><!DOCTYPE svg PUBLIC "-//W3C//DTD SVG 1.1//EN" "http://www.w3.org/Graphics/SVG/1.1/DTD/svg11.dtd"><svg t="1602252872432" class="icon" viewBox="0 0 1024 1024" version="1.1" xmlns="http://www.w3.org/2000/svg" p-id="5363" xmlns:xlink="http://www.w3.org/1999/xlink" width="200" height="200"><defs><style type="text/css"></style></defs><path d="M567.76 234.24v20.76l-62.16 10.72-62.16-10.72v-20.76l25.16-32.6h74l25.16 32.6z" fill="#FFD659" p-id="5364"></path><path d="M505.6 273.72h-1.36l-62.16-10.72a8 8 0 0 1-6.64-8v-20.76a8 8 0 0 1 1.68-4.88l25.16-32.6a8 8 0 0 1 6.32-3.12h74a8 8 0 0 1 6.32 3.12l25.16 32.6a8 8 0 0 1 1.68 4.88v20.76a8 8 0 0 1-6.64 8l-62.16 10.6z m-54.16-25.44l54.16 9.32 54.16-9.32v-11.28l-21.08-27.32h-66.12l-21.08 27.32z" fill="#2FB1EA" p-id="5365"></path><path d="M606.64 256.88v96.8A62.28 62.28 0 0 1 544.36 416h-77.52a62.28 62.28 0 0 1-62.28-62.28V256.88a24.92 24.92 0 0 1 16-23.24l12.92-5 72.24 37.04 72.24-37.04 12.92 5a24.92 24.92 0 0 1 15.76 23.24z" fill="#6DD0FC" p-id="5366"></path><path d="M608.52 256.92v73.6a63.44 63.44 0 0 1-63.44 63.44h-78.96a63.44 63.44 0 0 1-63.44-63.44v-73.6a25.36 25.36 0 0 1 16.2-23.68L432 228l73.56 37.76 73.6-37.76 13.16 5.08a25.36 25.36 0 0 1 16.2 23.84z" fill="#A4ECFF" p-id="5367"></path><path d="M462.68 307.4a24.96 24.96 0 0 0 14.64-1.32l1.76 1.72A37.96 37.96 0 0 0 532 308l1.76-1.72a25.24 25.24 0 0 0 9.44 1.88 25.48 25.48 0 0 0 5.28-0.56 25.16 25.16 0 0 0 16.92-12.72l31.64-58.92a25.36 25.36 0 0 0-4.8-2.48L579.16 228l-73.56 37.92L432 228l-13.16 5.08a25.36 25.36 0 0 0-4.8 2.48l31.64 58.96a25.16 25.16 0 0 0 17 12.88z" fill="#6DD0FC" p-id="5368"></path><path d="M544.36 424h-77.52a70.36 70.36 0 0 1-70.28-70.28V256.88a33.12 33.12 0 0 1 21-30.68l12.92-5a8 8 0 0 1 6.56 0.36l68.56 35.2 68.56-35.2a8 8 0 0 1 6.56-0.36l12.92 5a33.12 33.12 0 0 1 21 30.68v96.8A70.36 70.36 0 0 1 544.36 424z m-111.44-186.56l-9.56 3.72a17 17 0 0 0-10.8 15.76v96.8A54.36 54.36 0 0 0 466.84 408h77.52a54.36 54.36 0 0 0 54.28-54.28V256.88a17 17 0 0 0-10.8-15.76l-9.56-3.72-69.04 35.4a8 8 0 0 1-7.32 0z" fill="#2FB1EA" p-id="5369"></path><path d="M528 384.96l-12.32 17.08a12.44 12.44 0 0 1-20.2 0l-12.32-17.08a24.92 24.92 0 0 1-4.44-18.4l11.28-72.76h31.16l11.28 72.76a24.92 24.92 0 0 1-4.44 18.4z" fill="#FF8888" p-id="5370"></path><path d="M492.72 292l-4 26.48a30.96 30.96 0 0 0 34 0l-4-26.48z" fill="#F97171" p-id="5371"></path><path d="M505.6 415.16a20.52 20.52 0 0 1-16.6-8.48l-12.32-17.08a32.72 32.72 0 0 1-5.84-24.32l11.28-72.76a8 8 0 0 1 8-6.76h31.16a8 8 0 0 1 8 6.76l11.28 72.76a32.72 32.72 0 0 1-5.84 24.32l-12.32 17.08a20.52 20.52 0 0 1-16.8 8.48z m-8.72-113.36l-10.2 65.96a16.8 16.8 0 0 0 3 12.48l12.32 17.08a4.36 4.36 0 0 0 3.6 1.84 4.36 4.36 0 0 0 3.6-1.84l12.32-17.08a16.84 16.84 0 0 0 3-12.48l-10.2-65.96z" fill="#2FB1EA" p-id="5372"></path><path d="M539.16 279.28l-24.84 24.36a12.44 12.44 0 0 1-17.44 0L472 279.28l33.56-13.56z" fill="#FFFFFF" p-id="5373"></path><path d="M505.6 315.16a20.4 20.4 0 0 1-14.32-5.8l-24.84-24.36a8 8 0 0 1 2.6-13.12l33.56-13.56a8 8 0 0 1 6 0l33.56 13.68a8 8 0 0 1 2.6 13.12L520 309.36a20.4 20.4 0 0 1-14.4 5.8z m-19.24-33.04l16 16a4.48 4.48 0 0 0 6.24 0l16-16-19.24-7.76z" fill="#2FB1EA" p-id="5374"></path><path d="M459.08 207.4l-25.68 21.28 35.2 65.56 37-28.52-46.52-58.32z" fill="#FFFFFF" p-id="5375"></path><path d="M468.6 302.24a8 8 0 0 1-1.68 0 8 8 0 0 1-5.36-4l-35.2-65.56a8 8 0 0 1 1.96-9.96l25.72-21.28a8 8 0 0 1 5.92-1.8 8 8 0 0 1 5.44 2.96L512 260.72a8 8 0 0 1-1.36 11.32l-37.04 28.52a8 8 0 0 1-5 1.68z m-25.04-71.6l27.64 51.48 23.12-17.8-36.36-45.6z" fill="#2FB1EA" p-id="5376"></path><path d="M552.12 207.4l25.72 21.28-35.2 65.56-37.04-28.52 46.52-58.32z" fill="#FFFFFF" p-id="5377"></path><path d="M542.64 302.24a8 8 0 0 1-4.88-1.68L500.72 272a8 8 0 0 1-1.36-11.32l46.52-58.28a8 8 0 0 1 5.44-2.96 8 8 0 0 1 5.92 1.8l25.72 21.28a8 8 0 0 1 1.96 9.96l-35.2 65.56a8 8 0 0 1-5.36 4 8 8 0 0 1-1.72 0.2z m-25.68-37.88l23.04 17.8 27.64-51.48-14.4-12z" fill="#2FB1EA" p-id="5378"></path><path d="M455.8 96m49.84 0l-0.04 0q49.84 0 49.84 49.84l0 24.88q0 49.84-49.84 49.84l0.04 0q-49.84 0-49.84-49.84l0-24.88q0-49.84 49.84-49.84Z" fill="#FFC444" p-id="5379"></path><path d="M456.2 93.04m49.4 0l0.04 0q49.4 0 49.4 49.4l0 7.56q0 49.4-49.4 49.4l-0.04 0q-49.4 0-49.4-49.4l0-7.56q0-49.4 49.4-49.4Z" fill="#FFE76E" p-id="5380"></path><path d="M505.6 228.56a57.88 57.88 0 0 1-57.84-57.84v-24.88a57.84 57.84 0 1 1 115.64 0v24.92a57.88 57.88 0 0 1-57.8 57.8z m0-124.56a41.88 41.88 0 0 0-41.84 41.84v24.92a41.84 41.84 0 0 0 83.64 0v-24.92A41.88 41.88 0 0 0 505.6 104zM512 573.4a8 8 0 0 1-8-8v-106.8a8 8 0 0 1 16 0v106.8a8 8 0 0 1-8 8z" fill="#2FB1EA" p-id="5381"></path><path d="M826.96 573.4a8 8 0 0 1-8-8V520H205.04v45.4a8 8 0 0 1-16 0V512a8 8 0 0 1 8-8h629.92a8 8 0 0 1 8 8v53.4a8 8 0 0 1-8 8z" fill="#2FB1EA" p-id="5382"></path><path d="M889.12 746.24v20.76l-62.16 10.72-62.16-10.72v-20.76l25.16-32.6h74l25.16 32.6z" fill="#FFD659" p-id="5383"></path><path d="M826.96 785.72h-1.36l-62.16-10.72a8 8 0 0 1-6.64-8v-20.76a8 8 0 0 1 1.68-4.88l25.16-32.6a8 8 0 0 1 6.32-3.12H864a8 8 0 0 1 6.32 3.12l25.16 32.6a8 8 0 0 1 1.68 4.88v20.76a8 8 0 0 1-6.64 8l-62.16 10.72z m-54.16-25.44l54.16 9.32 54.16-9.32v-11.28l-21.12-27.36h-66.12l-21.08 27.32z" fill="#2FB1EA" p-id="5384"></path><path d="M928 768.88v96.8A62.28 62.28 0 0 1 865.72 928H788a62.28 62.28 0 0 1-62.28-62.28v-96.8a24.92 24.92 0 0 1 16-23.24l12.92-5 72.24 37.04 72.24-37.04 12.92 5a24.92 24.92 0 0 1 15.96 23.2z" fill="#6DD0FC" p-id="5385"></path><path d="M929.88 768.92v73.6a63.44 63.44 0 0 1-63.44 63.44h-78.96A63.44 63.44 0 0 1 724 842.52v-73.6a25.36 25.36 0 0 1 16.2-23.68l13.16-5.08 73.56 37.76 73.6-37.92 13.16 5.08a25.36 25.36 0 0 1 16.2 23.84z" fill="#A4ECFF" p-id="5386"></path><path d="M784 819.4a24.96 24.96 0 0 0 14.64-1.32l1.76 1.72a37.96 37.96 0 0 0 53.04 0l1.76-1.72a25.24 25.24 0 0 0 9.44 1.88 25.48 25.48 0 0 0 5.28-0.56 25.16 25.16 0 0 0 16.92-12.72l31.64-58.92a25.36 25.36 0 0 0-4.8-2.48l-13.16-5.28-73.56 37.76-73.56-37.76-13.16 5.08a25.36 25.36 0 0 0-4.8 2.48l31.64 58.96a25.16 25.16 0 0 0 16.92 12.88z" fill="#6DD0FC" p-id="5387"></path><path d="M865.72 936H788a70.36 70.36 0 0 1-70.28-70.28v-96.8a33.12 33.12 0 0 1 21-30.68l13.28-5.04a8 8 0 0 1 6.56 0.36l68.56 35.2 68.56-35.2a8 8 0 0 1 6.56-0.36l12.92 5a33.12 33.12 0 0 1 21 30.68v96.8A70.36 70.36 0 0 1 865.72 936z m-111.44-186.56l-9.56 3.72a17 17 0 0 0-10.8 15.76v96.8A54.36 54.36 0 0 0 788 920h77.52A54.36 54.36 0 0 0 920 865.72v-96.8a17 17 0 0 0-10.8-15.76l-9.56-3.72-69.04 35.4a8 8 0 0 1-7.32 0z" fill="#2FB1EA" p-id="5388"></path><path d="M860.52 791.28l-24.84 24.36a12.44 12.44 0 0 1-17.44 0l-24.84-24.36 33.56-13.56z" fill="#FFFFFF" p-id="5389"></path><path d="M826.96 827.16a20.4 20.4 0 0 1-14.32-5.8l-24.84-24.36a8 8 0 0 1 2.6-13.12l33.56-13.56a8 8 0 0 1 6 0l33.56 13.56a8 8 0 0 1 2.6 13.12l-24.84 24.36a20.4 20.4 0 0 1-14.32 5.8z m-19.24-33.04l16 16a4.48 4.48 0 0 0 6.24 0l16-16-19.24-7.76z" fill="#2FB1EA" p-id="5390"></path><path d="M780.44 719.4l-25.72 21.28 35.2 65.56 37.04-28.52-46.52-58.32z" fill="#FFFFFF" p-id="5391"></path><path d="M789.92 814.24a8 8 0 0 1-1.68 0 8 8 0 0 1-5.36-4l-35.2-65.56a8 8 0 0 1 1.96-9.96l25.72-21.28a8 8 0 0 1 5.92-1.8 8 8 0 0 1 5.44 2.96l46.52 58.32A8 8 0 0 1 832 784l-37.04 28.52a8 8 0 0 1-5.04 1.72z m-25.04-71.6l27.64 51.48 23.12-17.8-36.36-45.6z" fill="#2FB1EA" p-id="5392"></path><path d="M873.48 719.4l25.68 21.28-35.16 65.56-37.04-28.52 46.52-58.32z" fill="#FFFFFF" p-id="5393"></path><path d="M864 814.24a8 8 0 0 1-4.88-1.68l-37.04-28.56a8 8 0 0 1-1.36-11.32l46.48-58.28a8 8 0 0 1 5.44-2.96 8 8 0 0 1 5.92 1.8l25.72 21.28a8 8 0 0 1 1.96 9.96l-35.2 65.56a8 8 0 0 1-5.36 4 8 8 0 0 1-1.68 0.2z m-25.68-37.88l23.12 17.8 27.64-51.48-14.4-12z" fill="#2FB1EA" p-id="5394"></path><path d="M777.12 608m49.84 0l-0.04 0q49.84 0 49.84 49.84l0 24.88q0 49.84-49.84 49.84l0.04 0q-49.84 0-49.84-49.84l0-24.88q0-49.84 49.84-49.84Z" fill="#FFC444" p-id="5395"></path><path d="M777.56 605.04m49.4 0l0.04 0q49.4 0 49.4 49.4l0 7.56q0 49.4-49.4 49.4l-0.04 0q-49.4 0-49.4-49.4l0-7.56q0-49.4 49.4-49.4Z" fill="#FFE76E" p-id="5396"></path><path d="M826.96 740.56a57.88 57.88 0 0 1-57.84-57.84v-24.92a57.84 57.84 0 1 1 115.64 0v24.92a57.88 57.88 0 0 1-57.8 57.84z m0-124.56a41.88 41.88 0 0 0-41.84 41.84v24.92a41.84 41.84 0 0 0 83.64 0v-24.92A41.88 41.88 0 0 0 826.96 616zM826.96 936a8 8 0 0 1-8-8v-108.8a8 8 0 0 1 16 0V928a8 8 0 0 1-8 8z" fill="#2FB1EA" p-id="5397"></path><path d="M574.16 746.24v20.76L512 777.72l-62.16-10.72v-20.76l25.16-32.6h74l25.16 32.6z" fill="#FFD659" p-id="5398"></path><path d="M512 785.72h-1.36l-62.16-10.72a8 8 0 0 1-6.64-8v-20.76a8 8 0 0 1 1.68-4.88l25.16-32.6a8 8 0 0 1 6.32-3.12h74a8 8 0 0 1 6.32 3.12l25.16 32.6a8 8 0 0 1 1.68 4.88v20.76a8 8 0 0 1-6.64 8l-62.16 10.72z m-54.16-25.44L512 769.6l54.16-9.32v-11.28l-21.08-27.32h-66.16l-21.08 27.32z" fill="#2FB1EA" p-id="5399"></path><path d="M613.04 768.88v96.8A62.28 62.28 0 0 1 550.76 928h-77.52a62.28 62.28 0 0 1-62.28-62.28v-96.8a24.92 24.92 0 0 1 16-23.24l12.92-5 72.12 37.04 72.24-37.04 12.92 5a24.92 24.92 0 0 1 15.88 23.2z" fill="#6DD0FC" p-id="5400"></path><path d="M614.92 768.92v73.6a63.44 63.44 0 0 1-63.44 63.44h-78.96a63.44 63.44 0 0 1-63.44-63.44v-73.6a25.36 25.36 0 0 1 16.2-23.68l13.16-5.08 73.56 37.76 73.56-37.92 13.16 5.08a25.36 25.36 0 0 1 16.2 23.84z" fill="#A4ECFF" p-id="5401"></path><path d="M469.08 819.4a24.96 24.96 0 0 0 14.64-1.32l1.76 1.72a37.96 37.96 0 0 0 53.04 0l1.76-1.72a25.24 25.24 0 0 0 9.44 1.88 25.48 25.48 0 0 0 5.28-0.56 25.16 25.16 0 0 0 16.92-12.72l31.64-58.92a25.36 25.36 0 0 0-4.8-2.48l-13.2-5.28-73.56 37.92-73.56-37.92-13.16 5.08a25.36 25.36 0 0 0-4.8 2.48l31.52 59.16a25.16 25.16 0 0 0 17.08 12.68z" fill="#6DD0FC" p-id="5402"></path><path d="M550.76 936h-77.52a70.36 70.36 0 0 1-70.28-70.28v-96.8a33.12 33.12 0 0 1 21-30.68l12.92-5a8 8 0 0 1 6.56 0.36l68.56 35.2 68.56-35.2a8 8 0 0 1 6.56-0.36l12.92 5a33.12 33.12 0 0 1 21 30.68v96.8A70.36 70.36 0 0 1 550.76 936z m-111.44-186.56l-9.56 3.72a17 17 0 0 0-10.8 15.76v96.8A54.36 54.36 0 0 0 473.24 920h77.52a54.36 54.36 0 0 0 54.28-54.28v-96.8a17 17 0 0 0-10.8-15.76l-9.56-3.72-69.04 35.4a8 8 0 0 1-7.32 0z" fill="#2FB1EA" p-id="5403"></path><path d="M545.56 791.28l-24.84 24.36a12.44 12.44 0 0 1-17.44 0l-24.84-24.36 33.56-13.56z" fill="#FFFFFF" p-id="5404"></path><path d="M512 827.16a20.4 20.4 0 0 1-14.32-5.8l-24.84-24.36a8 8 0 0 1 2.6-13.12l33.56-13.56a8 8 0 0 1 6 0l33.56 13.56a8 8 0 0 1 2.6 13.12l-24.84 24.36a20.4 20.4 0 0 1-14.32 5.8z m-19.24-33.04l16 16a4.48 4.48 0 0 0 6.24 0l16-16-19-7.76z" fill="#2FB1EA" p-id="5405"></path><path d="M465.48 719.4l-25.72 21.28 35.2 65.56 37.04-28.52-46.52-58.32z" fill="#FFFFFF" p-id="5406"></path><path d="M474.96 814.24a8 8 0 0 1-1.68 0 8 8 0 0 1-5.36-4l-35.2-65.56a8 8 0 0 1 1.96-9.96l25.72-21.28a8 8 0 0 1 5.92-1.8 8 8 0 0 1 5.44 2.96l46.52 58.32a8 8 0 0 1-1.36 11.32l-36.92 28.32a8 8 0 0 1-5.04 1.68z m-25.04-71.6l27.64 51.48 23.12-17.8-36.36-45.6z" fill="#2FB1EA" p-id="5407"></path><path d="M558.52 719.4l25.72 21.28-35.2 65.56-37.04-28.52 46.52-58.32z" fill="#FFFFFF" p-id="5408"></path><path d="M549.04 814.24a8 8 0 0 1-4.88-1.68l-37.04-28.56a8 8 0 0 1-1.36-11.32l46.52-58.32a8 8 0 0 1 5.44-2.96 8 8 0 0 1 5.92 1.8l25.72 21.28a8 8 0 0 1 1.96 9.96l-35.32 65.6a8 8 0 0 1-5.36 4 8 8 0 0 1-1.6 0.2z m-25.68-37.88l23.12 17.8 27.64-51.48-14.4-12z" fill="#2FB1EA" p-id="5409"></path><path d="M462.16 608m49.84 0l-0.04 0q49.84 0 49.84 49.84l0 24.88q0 49.84-49.84 49.84l0.04 0q-49.84 0-49.84-49.84l0-24.88q0-49.84 49.84-49.84Z" fill="#FFC444" p-id="5410"></path><path d="M462.6 605.04m49.4 0l0.04 0q49.4 0 49.4 49.4l0 7.56q0 49.4-49.4 49.4l-0.04 0q-49.4 0-49.4-49.4l0-7.56q0-49.4 49.4-49.4Z" fill="#FFE76E" p-id="5411"></path><path d="M512 740.56a57.88 57.88 0 0 1-57.84-57.84v-24.92a57.84 57.84 0 1 1 115.64 0v24.92A57.88 57.88 0 0 1 512 740.56z m0-124.56a41.88 41.88 0 0 0-41.84 41.84v24.92a41.84 41.84 0 0 0 83.64 0v-24.92A41.88 41.88 0 0 0 512 616zM512 936a8 8 0 0 1-8-8v-108.8a8 8 0 0 1 16 0V928a8 8 0 0 1-8 8z" fill="#2FB1EA" p-id="5412"></path><path d="M259.2 746.24v20.76l-62.16 10.72-62.16-10.72v-20.76l25.16-32.6h74l25.16 32.6z" fill="#FFD659" p-id="5413"></path><path d="M197.04 785.72h-1.36l-62.16-10.72a8 8 0 0 1-6.64-8v-20.76a8 8 0 0 1 1.68-4.88l25.16-32.6a8 8 0 0 1 6.32-3.12h74a8 8 0 0 1 6.32 3.12l25.16 32.6a8 8 0 0 1 1.68 4.88v20.76a8 8 0 0 1-6.64 8L198.4 785.6z m-54.16-25.44l54.16 9.32 54.16-9.32v-11.28l-21.08-27.32H164l-21.08 27.32z" fill="#2FB1EA" p-id="5414"></path><path d="M298.08 768.88v96.8A62.28 62.28 0 0 1 236 928H158.28A62.28 62.28 0 0 1 96 865.72v-96.8a24.92 24.92 0 0 1 16-23.24l12.92-5 72.24 37.04 72.24-37.04 12.92 5a24.92 24.92 0 0 1 15.76 23.2z" fill="#6DD0FC" p-id="5415"></path><path d="M300 768.92v73.6a63.44 63.44 0 0 1-63.44 63.44H157.56a63.44 63.44 0 0 1-63.44-63.44v-73.6a25.36 25.36 0 0 1 16.2-23.68l13.16-5.24 73.56 37.76L270.6 740l13.16 5.08a25.36 25.36 0 0 1 16.24 23.84z" fill="#A4ECFF" p-id="5416"></path><path d="M154.12 819.4a24.96 24.96 0 0 0 14.64-1.32l1.76 1.72a37.96 37.96 0 0 0 53.04 0l1.76-1.72a25.24 25.24 0 0 0 9.44 1.88 25.48 25.48 0 0 0 5.28-0.56 25.16 25.16 0 0 0 16.92-12.72l31.64-58.92a25.36 25.36 0 0 0-4.8-2.48l-13.2-5.28-73.56 37.76L123.48 740l-13.16 5.08a25.36 25.36 0 0 0-4.8 2.48l31.64 58.96a25.16 25.16 0 0 0 16.96 12.88z" fill="#6DD0FC" p-id="5417"></path><path d="M236 936H158.28A70.36 70.36 0 0 1 88 865.72v-96.8a33.12 33.12 0 0 1 21-30.68l12.92-5a8 8 0 0 1 6.56 0.36l68.56 35.2 68.56-35.2a8 8 0 0 1 6.4-0.4l12.92 5a33.12 33.12 0 0 1 21 30.68v96.8A70.36 70.36 0 0 1 236 936z m-111.64-186.56l-9.56 3.72a17 17 0 0 0-10.8 15.76v96.8A54.36 54.36 0 0 0 158.28 920H236a54.36 54.36 0 0 0 54.28-54.28v-96.8a17 17 0 0 0-10.8-15.76l-9.56-3.72-69.04 35.4a8 8 0 0 1-7.32 0z" fill="#2FB1EA" p-id="5418"></path><path d="M230.6 791.28l-24.84 24.36a12.44 12.44 0 0 1-17.44 0l-24.84-24.36 33.56-13.56z" fill="#FFFFFF" p-id="5419"></path><path d="M197.04 827.16a20.4 20.4 0 0 1-14.32-5.8l-24.84-24.36a8 8 0 0 1 2.6-13.12l33.56-13.56a8 8 0 0 1 6 0L233.6 784a8 8 0 0 1 2.6 13.12l-24.84 24.36a20.4 20.4 0 0 1-14.32 5.68z m-19.24-33.04l16 16a4.48 4.48 0 0 0 6.24 0l16-16-19.24-7.76z" fill="#2FB1EA" p-id="5420"></path><path d="M150.52 719.4l-25.72 21.28 35.24 65.56 37-28.52-46.52-58.32z" fill="#FFFFFF" p-id="5421"></path><path d="M160 814.24a8 8 0 0 1-1.68 0 8 8 0 0 1-5.36-4l-35.2-65.56a8 8 0 0 1 1.96-9.96l25.72-21.28a8 8 0 0 1 5.92-1.8 8 8 0 0 1 5.44 2.96l46.52 58.32a8 8 0 0 1-1.36 11.32l-37.04 28.52a8 8 0 0 1-4.92 1.48z m-25.04-71.6l27.64 51.48 23.12-17.8-36.36-45.6z" fill="#2FB1EA" p-id="5422"></path><path d="M243.56 719.4l25.72 21.28-35.2 65.56-37.04-28.52 46.52-58.32z" fill="#FFFFFF" p-id="5423"></path><path d="M234.08 814.24a8 8 0 0 1-4.88-1.68L192 784a8 8 0 0 1-1.36-11.32l46.68-58.28a8 8 0 0 1 5.44-2.96 8 8 0 0 1 5.92 1.8l25.72 21.28a8 8 0 0 1 1.96 9.96l-35.2 65.56a8 8 0 0 1-5.36 4 8 8 0 0 1-1.72 0.2z m-25.68-37.88l23.12 17.8 27.64-51.48-14.4-12z" fill="#2FB1EA" p-id="5424"></path><path d="M147.2 608m49.84 0l-0.04 0q49.84 0 49.84 49.84l0 24.88q0 49.84-49.84 49.84l0.04 0q-49.84 0-49.84-49.84l0-24.88q0-49.84 49.84-49.84Z" fill="#FFC444" p-id="5425"></path><path d="M147.64 605.04m49.4 0l0.04 0q49.4 0 49.4 49.4l0 7.56q0 49.4-49.4 49.4l-0.04 0q-49.4 0-49.4-49.4l0-7.56q0-49.4 49.4-49.4Z" fill="#FFE76E" p-id="5426"></path><path d="M197.04 740.56a57.88 57.88 0 0 1-57.84-57.8v-24.92a57.84 57.84 0 1 1 115.64 0v24.92a57.88 57.88 0 0 1-57.8 57.8z m0-124.56a41.88 41.88 0 0 0-41.84 41.84v24.92a41.84 41.84 0 0 0 83.64 0v-24.92A41.88 41.88 0 0 0 197.04 616zM197.04 936a8 8 0 0 1-8-8v-108.8a8 8 0 0 1 16 0V928a8 8 0 0 1-8 8z" fill="#2FB1EA" p-id="5427"></path><path d="M196 120m-20 0a20 20 0 1 0 40 0 20 20 0 1 0-40 0Z" fill="#D4FFD4" p-id="5428"></path><path d="M788 188m-16 0a16 16 0 1 0 32 0 16 16 0 1 0-32 0Z" fill="#D4FFD4" p-id="5429"></path><path d="M105 267m-12 0a12 12 0 1 0 24 0 12 12 0 1 0-24 0Z" fill="#D4FFD4" p-id="5430"></path><path d="M212 460m-8 0a8 8 0 1 0 16 0 8 8 0 1 0-16 0Z" fill="#D4FFD4" p-id="5431"></path><path d="M212 240m-4 0a4 4 0 1 0 8 0 4 4 0 1 0-8 0Z" fill="#D4FFD4" p-id="5432"></path><path d="M664 428m-20 0a20 20 0 1 0 40 0 20 20 0 1 0-40 0Z" fill="#FFBDBD" p-id="5433"></path><path d="M332 644m-16 0a16 16 0 1 0 32 0 16 16 0 1 0-32 0Z" fill="#FFBDBD" p-id="5434"></path><path d="M333 339m-12 0a12 12 0 1 0 24 0 12 12 0 1 0-24 0Z" fill="#FFBDBD" p-id="5435"></path><path d="M333 195m-8 0a8 8 0 1 0 16 0 8 8 0 1 0-16 0Z" fill="#FFBDBD" p-id="5436"></path><path d="M696 188m-4 0a4 4 0 1 0 8 0 4 4 0 1 0-8 0Z" fill="#FFBDBD" p-id="5437"></path><path d="M913 555m-20 0a20 20 0 1 0 40 0 20 20 0 1 0-40 0Z" fill="#BBF1FF" p-id="5438"></path><path d="M617 991m-16 0a16 16 0 1 0 32 0 16 16 0 1 0-32 0Z" fill="#BBF1FF" p-id="5439"></path><path d="M105 419m-12 0a12 12 0 1 0 24 0 12 12 0 1 0-24 0Z" fill="#BBF1FF" p-id="5440"></path><path d="M829 299m-8 0a8 8 0 1 0 16 0 8 8 0 1 0-16 0Z" fill="#BBF1FF" p-id="5441"></path><path d="M905 823m-4 0a4 4 0 1 0 8 0 4 4 0 1 0-8 0Z" fill="#BBF1FF" p-id="5442"></path><path d="M776 452m-20 0a20 20 0 1 0 40 0 20 20 0 1 0-40 0Z" fill="#FFF4C5" p-id="5443"></path><path d="M468 32m-16 0a16 16 0 1 0 32 0 16 16 0 1 0-32 0Z" fill="#FFF4C5" p-id="5444"></path><path d="M644 592m-12 0a12 12 0 1 0 24 0 12 12 0 1 0-24 0Z" fill="#FFF4C5" p-id="5445"></path><path d="M692 300m-8 0a8 8 0 1 0 16 0 8 8 0 1 0-16 0Z" fill="#FFF4C5" p-id="5446"></path><path d="M95 621m-4 0a4 4 0 1 0 8 0 4 4 0 1 0-8 0Z" fill="#FFF4C5" p-id="5447"></path></svg>